<?xml version="1.0" standalone="no"?>
<!DOCTYPE svg PUBLIC "-//W3C//DTD SVG 20010904//EN"
 "http://www.w3.org/TR/2001/REC-SVG-20010904/DTD/svg10.dtd">
<svg version="1.0" xmlns="http://www.w3.org/2000/svg"
 width="1240.000000pt" height="1240.000000pt" viewBox="0 0 1240.000000 1240.000000"
 preserveAspectRatio="xMidYMid meet">
<metadata>
Created by potrace 1.14, written by Peter Selinger 2001-2017
</metadata>
<g transform="translate(0.000000,1240.000000) scale(0.100000,-0.100000)"
fill="#000000" stroke="none">
<path d="M9369 9045 c-2 -2 -35 -6 -74 -10 -165 -17 -200 -23 -375 -65 -109
-26 -103 -24 -117 -33 -7 -5 -13 -6 -13 -3 0 7 -181 -55 -285 -99 -153 -63
-315 -149 -460 -243 -61 -40 -229 -163 -240 -176 -5 -6 -28 -26 -51 -43 -73
-57 -219 -206 -339 -344 -84 -97 -88 -216 -8 -290 40 -38 66 -49 127 -55 80
-8 103 7 221 142 258 295 590 526 963 670 100 39 280 92 362 108 161 31 191
35 295 43 162 12 413 7 528 -12 12 -2 38 -6 57 -9 149 -24 354 -80 495 -136
175 -69 485 -242 549 -306 8 -8 17 -14 21 -14 4 0 12 -6 19 -12 7 -7 25 -22
40 -33 136 -98 379 -360 491 -530 22 -33 43 -61 48 -63 4 -2 7 -10 7 -17 0 -7
3 -15 8 -17 17 -7 148 -262 190 -369 16 -41 33 -83 37 -94 5 -11 9 -22 10 -25
0 -3 9 -32 20 -65 31 -99 62 -217 68 -260 3 -16 10 -57 16 -90 6 -33 13 -85
17 -115 3 -30 8 -68 10 -85 5 -39 4 -346 -1 -405 -12 -140 -42 -310 -76 -440
-96 -358 -288 -716 -534 -995 -104 -117 -252 -255 -358 -331 -28 -21 -54 -41
-57 -44 -8 -9 -111 -76 -185 -120 -177 -108 -503 -238 -665 -267 -14 -2 -41
-8 -60 -13 -38 -9 -66 -14 -210 -34 -93 -14 -494 -15 -550 -3 -22 5 -47 9
-151 23 -85 11 -364 89 -411 115 -10 5 -22 9 -28 9 -13 0 -127 52 -225 102
-44 23 -90 46 -102 52 -13 6 -23 14 -23 19 0 4 -5 7 -10 7 -27 0 -287 191
-389 284 -50 46 -41 38 -141 141 -89 92 -118 109 -191 109 -86 1 -143 -35
-183 -118 -20 -41 -22 -55 -14 -102 11 -70 24 -90 124 -189 338 -334 675 -548
1099 -699 153 -54 354 -104 490 -122 22 -3 51 -8 65 -10 80 -14 167 -19 350
-19 268 0 354 8 565 52 66 13 131 27 145 29 14 3 99 30 190 60 534 179 1017
528 1364 984 121 160 250 381 331 570 44 102 105 266 111 299 3 13 9 31 13 40
7 14 44 160 57 226 2 11 6 31 9 45 3 14 8 39 10 55 3 17 7 45 10 63 3 18 8 54
12 80 10 63 10 624 0 687 -4 28 -10 66 -12 85 -3 20 -8 47 -10 60 -3 14 -8 41
-11 60 -5 35 -30 137 -57 240 -100 374 -342 820 -607 1115 -78 87 -220 225
-305 295 -105 88 -259 200 -273 200 -6 0 -12 3 -14 8 -5 13 -128 85 -243 144
-114 58 -308 141 -318 136 -1 -1 -12 4 -25 11 -13 7 -31 14 -40 16 -9 3 -55
16 -102 31 -128 39 -319 79 -480 99 -50 7 -516 16 -521 10z"/>
<path d="M850 7149 c-110 -18 -159 -29 -205 -49 -161 -68 -253 -128 -350 -225
-105 -104 -137 -146 -182 -235 -25 -51 -73 -175 -79 -205 -2 -11 -7 -31 -10
-45 -4 -14 -9 -81 -11 -150 -6 -139 10 -260 44 -350 3 -8 7 -22 9 -30 2 -8 21
-51 44 -95 122 -240 325 -412 577 -489 129 -39 159 -44 291 -41 140 3 164 6
267 36 149 44 283 127 403 247 79 80 90 114 52 152 -36 36 -69 26 -130 -38
-74 -79 -131 -123 -220 -170 -227 -121 -491 -129 -724 -22 -84 38 -133 71
-219 150 -54 49 -137 152 -137 169 0 6 -3 11 -8 11 -6 0 -55 95 -57 110 0 3
-3 10 -7 15 -5 9 -24 72 -34 117 -2 10 -7 28 -10 41 -9 38 -12 202 -3 253 13
86 18 107 35 158 23 70 23 69 33 86 5 8 12 22 15 30 25 65 150 215 238 286 74
59 218 124 333 149 61 14 271 14 329 1 153 -36 298 -117 413 -232 52 -52 73
-59 111 -40 32 17 45 53 29 83 -16 30 -111 117 -175 161 -111 75 -217 121
-357 152 -60 14 -242 19 -305 9z"/>
<path d="M5570 7149 c-25 -4 -56 -10 -70 -14 -14 -3 -34 -7 -45 -9 -66 -14
-232 -88 -281 -125 -12 -9 -32 -23 -44 -31 -44 -29 -149 -132 -188 -183 -187
-242 -250 -565 -167 -851 81 -281 255 -487 518 -616 43 -22 79 -39 80 -38 1 0
22 -5 47 -12 195 -54 397 -51 575 6 160 52 334 173 445 310 71 89 169 286 185
374 5 25 19 109 21 125 4 30 4 206 -1 235 -2 14 -6 43 -10 65 -10 58 -53 180
-90 255 -64 128 -179 259 -303 348 -46 33 -204 112 -223 112 -9 0 -19 3 -23 8
-4 4 -12 8 -17 8 -5 1 -10 2 -11 4 -4 2 -34 9 -68 15 -14 2 -36 7 -50 10 -40
9 -231 12 -280 4z m293 -144 c82 -17 164 -48 219 -82 21 -13 40 -23 43 -23 21
0 175 -141 229 -210 30 -38 102 -180 120 -235 37 -119 49 -263 32 -383 -7 -48
-36 -161 -47 -181 -4 -9 -16 -34 -25 -56 -84 -191 -284 -367 -495 -434 -138
-44 -325 -47 -464 -8 -69 20 -192 72 -205 87 -3 3 -25 18 -50 34 -61 40 -158
139 -206 211 -59 88 -95 169 -121 270 -19 76 -22 110 -19 215 4 130 4 137 32
229 10 31 18 58 19 61 0 3 16 34 34 70 172 336 536 512 904 435z"/>
<path d="M10169 7156 c-3 -3 -24 -6 -47 -7 -24 -2 -46 -7 -48 -11 -3 -5 -9 -6
-13 -3 -5 2 -23 0 -42 -6 -19 -5 -42 -12 -51 -14 -10 -2 -56 -22 -104 -44
-243 -114 -427 -321 -512 -576 -50 -148 -60 -335 -27 -496 10 -49 47 -164 56
-174 5 -5 9 -14 9 -21 0 -12 77 -153 89 -164 4 -3 19 -22 34 -43 111 -148 326
-289 512 -336 89 -22 115 -25 235 -25 150 0 199 7 309 45 154 53 305 153 404
268 53 61 56 89 15 124 -36 30 -59 21 -138 -56 -167 -162 -352 -245 -560 -251
-245 -7 -474 89 -635 267 -89 98 -182 273 -199 373 -16 94 -19 125 -20 184 -1
36 1 83 5 105 4 22 10 56 13 75 12 79 75 225 130 305 88 126 245 247 393 304
87 33 113 38 240 48 208 15 434 -67 590 -214 80 -75 90 -82 123 -77 35 6 60
38 54 72 -4 23 -77 101 -155 164 -59 49 -238 133 -335 159 -72 19 -313 37
-325 25z"/>
<path d="M1942 7131 c-7 -4 -10 -334 -10 -944 l-1 -938 67 3 67 3 0 875 0 875
295 1 c209 0 314 -4 360 -13 139 -29 246 -100 316 -209 41 -64 47 -89 48 -184
0 -60 -5 -86 -26 -130 -81 -174 -246 -258 -518 -265 -63 -2 -122 -4 -131 -4
-29 -2 -58 -39 -53 -68 6 -32 42 -95 76 -134 13 -15 32 -38 43 -52 11 -13 144
-176 295 -360 l275 -336 83 -1 c64 0 82 3 82 14 0 8 -3 16 -7 18 -7 3 -100
112 -193 228 -19 24 -84 102 -144 174 -60 72 -123 148 -140 169 -54 67 -140
171 -158 191 -25 28 -23 33 15 33 137 3 245 26 340 74 73 37 77 40 153 116 64
66 115 155 133 232 14 63 7 197 -12 253 -66 188 -253 335 -477 376 -39 7 -767
10 -778 3z"/>
<path d="M3490 6195 l0 -945 623 0 624 0 21 23 c26 28 23 74 -7 96 -19 15 -81
16 -576 16 l-555 0 -1 25 c0 29 0 653 1 691 l0 26 395 -1 c389 0 396 0 416 21
27 26 27 69 2 95 -19 19 -36 19 -416 20 l-397 0 -1 41 c-3 234 1 690 6 695 4
4 255 7 558 7 304 0 558 4 565 9 40 25 32 108 -11 120 -12 3 -298 6 -634 6
l-613 0 0 -945z"/>
<path d="M6664 7132 c-6 -4 -16 -17 -22 -28 -9 -18 -8 -26 8 -47 l19 -24 238
-1 c131 0 243 -1 248 -1 7 -1 10 -305 10 -891 l-1 -890 53 0 53 0 0 890 0 890
23 1 c12 0 124 1 249 2 242 2 251 4 251 51 0 58 23 55 -571 56 -301 0 -552 -3
-558 -8z"/>
<path d="M8010 6195 l0 -945 623 0 c547 0 625 2 645 16 29 20 30 74 1 100 -20
18 -45 19 -568 21 -300 0 -551 1 -557 2 -7 1 -10 112 -10 369 l1 367 375 2
c206 1 384 2 396 2 54 2 82 73 45 110 -12 12 -31 21 -43 21 -13 1 -192 2 -398
3 l-375 2 -2 355 c-1 195 0 362 3 370 3 13 73 15 558 15 531 0 555 1 575 19
24 22 27 64 7 92 -14 18 -34 19 -645 22 l-631 2 0 -945z"/>
</g>
</svg>
